<svg xmlns="http://www.w3.org/2000/svg" xmlns:xlink="http://www.w3.org/1999/xlink" width="301.647" height="82.609"><defs><clipPath id="b"><use width="1" height="1" xlink:href="#a" overflow="visible"/></clipPath></defs><g fill="#fff"><g transform="matrix(1.25165 0 0 1.25165 -232.013 -454.676)"><defs><path id="a" d="M237.616 374.012h188.75v29h-188.75z"/></defs><path d="M414.866 402.512h5v-7c0-2.75 0-8 4-8 1 0 2 .25 2.5.5v-5c-.75-.25-1.25-.25-1.75-.25-3 0-5 3-5.25 5v-4.5h-4.5v19.25zm-5-5c-2 1-4 1.75-6.5 1.75-3 0-5.25-1.75-5.5-4.75h13.5c0-6.75-2-11.75-9.25-11.75-6 0-9 4.75-9 10.25 0 6.25 3.75 10 10 10 2.75 0 5-.5 6.75-1.5v-4zm-12-6.5c.25-2.5 1.75-4.5 4.5-4.5s4 2 4 4.5h-8.5zm-16 11.5h5v-15.5h4.5v-3.75h-4.5v-2.5c0-1.5.5-2.75 2.25-2.75 1 0 1.75.25 2.25.5l.25-4c-1-.25-2.25-.5-3.5-.5-4 0-6.25 2.75-6.25 6.5v2.75h-3.75v3.75h3.75v15.5zm-20-10c0-3 1.5-5.75 4.75-5.75 3.5 0 5 2.75 5 5.75 0 3.25-1 6.75-5 6.75-3.75 0-4.75-3.5-4.75-6.75m-5.25.5c0 5.5 3.75 10 10 10 6.5 0 10.25-4.5 10.25-10 0-6.25-4.5-10.25-10.25-10.25-5.5 0-10 4-10 10.25m-21 9.5h5v-9.25c0-2.5 1-6.5 4.5-6.5 3.25 0 3.25 3.25 3.25 5.5v10.25h5v-12c0-4.5-2-7.75-6.5-7.75-2.5 0-4.75 1.25-6 3.25h-.25v-11.5h-5v28zm-22.75 0h5v-9.25c0-2.5.75-6.5 4.5-6.5 3 0 3.25 3.25 3.25 5.5v10.25h5v-12c0-4.5-2-7.75-6.75-7.75-2.5 0-4.75 1-6.25 3.25v-2.75h-4.75v19.25zm-5.25-19.25h-5v9.5c0 2.5-.75 6.5-4.5 6.5-3.25 0-3.25-3.25-3.25-5.75v-10.25h-5v12.25c0 4.25 2 7.5 6.5 7.5 2.75 0 4.75-1.25 6.5-3v2.5h4.75v-19.25zm-34.25 13.75c0-3 3.25-3.25 5.5-3.25h2.25c0 1.5-.25 2.75-1 4-.75 1-2 1.5-3.5 1.5-2 0-3.25-.5-3.25-2.25m-2.5-8.5c1.5-1.25 3.75-2 6-2 2.75 0 4.25 1 4.25 4.25h-2.75c-2.25 0-4.5 0-6.5 1s-3.25 2.75-3.25 5.5c0 3.75 3.25 5.75 6.75 5.75 2.25 0 4.75-1.25 6-3.25 0 .5 0 1.75.25 2.75h4.25v-4.25c-.25-1.5-.25-2.75-.25-4.75v-2.5c0-5.75-2.5-8.25-8.25-8.25-2.25 0-4.75.75-6.75 1.5l.25 4.25zm-15.25 14h5v-7c0-2.75 0-8 4.25-8 .75 0 1.75.25 2.25.5v-5c-.5-.25-1.25-.25-1.5-.25-3 0-5.25 3-5.5 5v-4.5h-4.5v19.25zm-18 0h5.25v-11.5h8.75v-4h-8.75v-6.5h9.25v-4h-14.5v26z" clip-path="url(#b)"/></g><path d="M266.6 82.296h-3.128V66.024h3.13zM279.117 68.215c-1.877 0-3.13.626-4.068 1.564-.94 1.25-1.565 2.815-1.565 4.38 0 1.878.626 3.13 1.564 4.068.938 1.252 2.19 1.877 3.754 1.877.94 0 1.565-.313 2.19-.313v-4.38h-3.44v-2.504h6.57v8.762c-1.878.626-3.442.94-5.32.94-2.503 0-4.693-.627-6.258-2.192-1.564-1.25-2.503-3.13-2.503-5.945.313-5.945 3.13-8.762 8.76-8.762 1.88 0 3.443.314 4.695.627l-.313 2.816c-1.252-.625-2.503-.938-4.068-.938zM287.88 66.024h4.38c2.503 0 4.693.313 6.57 1.565.626.625 1.565 1.563 1.878 2.502.626.94.626 2.503.626 4.068 0 1.565 0 2.816-.626 4.068-.313.94-1.252 1.877-1.877 2.503-.938.627-1.877.94-3.128 1.253-.94.313-2.19.313-3.442.313h-4.38V66.024zm3.44 13.768h1.565c1.565 0 2.817-.625 3.755-1.564.94-.94 1.565-2.19 1.565-4.068 0-1.877-.626-3.13-1.565-4.068-.938-.94-2.19-1.564-3.755-1.564h-1.564v11.264z"/></g><path d="M0 49.127C11.578 43.182 28.475 33.482 48.814 19.4v-4.693C30.978 26.285 12.83 35.672 0 41.93v7.197zM0 35.046c12.83-5.32 30.978-13.455 48.814-24.094v-2.19C31.917 16.897 14.707 22.217 0 25.346v9.7zM48.814 49.127v-23.78c-11.265 9.386-22.217 17.522-31.29 23.78h31.29zM11.265 49.127c8.76-5.006 19.4-11.89 30.04-19.713 2.503-1.878 5.006-4.068 7.51-5.946v-2.816C33.168 32.23 16.896 42.242 4.38 49.127h6.885zM0 21.904C14.08 19.4 31.604 15.02 48.814 6.884V4.068C31.604 11.89 14.394 15.02 0 16.27v5.634z" fill="#179c7d"/><path d="M0 0v13.768c.94 0 2.19 0 3.13-.313 11.89-.94 28.16-2.816 45.684-10.326V0H0z" fill="#179c7d"/><path d="M0 13.768v2.503c14.394-1.25 31.604-4.38 48.814-12.202v-.94C31.29 10.64 15.02 12.517 3.13 13.456c-.94.313-2.19.313-3.13.313zM0 25.346c14.707-3.13 31.917-8.45 48.814-16.584V6.884C31.604 15.02 14.08 19.4 0 21.904v3.442zM0 41.93c12.83-6.258 30.978-15.645 48.814-27.223v-3.755C30.978 21.592 12.83 29.727 0 35.046v6.884zM11.265 49.127h6.258c9.074-6.258 20.026-14.394 31.29-23.78v-1.88c-2.502 1.88-5.005 4.07-7.51 5.947-10.638 7.822-21.277 14.707-30.038 19.713zM0 49.127h4.38c12.517-6.884 28.79-16.897 44.434-28.475v-1.25C28.474 33.48 11.578 43.18 0 49.126z" fill="#fff"/></svg>