<svg xmlns="http://www.w3.org/2000/svg" xml:space="preserve" style="enable-background:new 0 0 561.2 561.2" viewBox="0 0 561.2 561.2"><path d="M0 0h561.2v561.2H0z" style="fill:#e20074"/><path d="M1042.5 1479.7v-83.9h-57.7c-99.5 0-145.1-59.1-145.1-146.1V370.6h17.1c186.3 0 304.6 123.6 304.6 305.4v16.3h70.8V286.7h-1000v405.5H303V676c0-181.8 118.3-305.4 304.6-305.4h17.1v879.1c0 87-45.6 146.1-145.1 146.1H422v83.9h620.5z" style="fill:#fff" transform="translate(71.408 28.262) scale(.2857)"/><path d="M1232.2 1074.2H994.4V835.6h237.8v238.6zM470 1074.2H232.2V835.6H470v238.6z" style="fill:#fff" transform="translate(71.408 28.262) scale(.2857)"/></svg>