<?xml version="1.0" encoding="utf-8"?>
<!-- Generator: Adobe Illustrator 24.0.2, SVG Export Plug-In . SVG Version: 6.00 Build 0)  -->
<svg version="1.1" id="Layer_1" xmlns="http://www.w3.org/2000/svg" xmlns:xlink="http://www.w3.org/1999/xlink" x="0px" y="0px"
	 viewBox="0 0 491 435.8" style="enable-background:new 0 0 491 435.8;" xml:space="preserve">
<style type="text/css">
	.st0{fill:none;stroke:#0062A1;stroke-width:14;stroke-miterlimit:10;}
	.st1{fill-rule:evenodd;clip-rule:evenodd;fill:none;stroke:#0062A1;stroke-miterlimit:10;}
	.st2{fill:none;stroke:#0062A1;stroke-width:4;stroke-linecap:round;stroke-linejoin:round;stroke-miterlimit:10;}
	.st3{fill-rule:evenodd;clip-rule:evenodd;fill:#0062A1;}
	.st4{fill-rule:evenodd;clip-rule:evenodd;fill:#FFFFFF;stroke:#0062A1;stroke-miterlimit:10;}
	.st5{fill:none;stroke:#0062A1;stroke-width:2.312;stroke-linecap:round;stroke-linejoin:round;stroke-miterlimit:10;}
	.st6{fill:none;stroke:#0062A1;stroke-width:3;stroke-linecap:round;stroke-linejoin:round;stroke-miterlimit:10;}
	.st7{fill:none;stroke:#0062A1;stroke-width:2;stroke-linecap:round;stroke-linejoin:round;stroke-miterlimit:10;}
	.st8{fill-rule:evenodd;clip-rule:evenodd;fill:#0062A1;stroke:#0062A1;stroke-miterlimit:10;}
	.st9{fill-rule:evenodd;clip-rule:evenodd;stroke:#0062A1;stroke-miterlimit:10;}
	.st10{fill:#0062A1;}
	
		.st11{fill:none;stroke:#0062A1;stroke-width:3;stroke-linecap:round;stroke-linejoin:round;stroke-miterlimit:10;stroke-dasharray:11.5601,8.2572;}
</style>
<path class="st0" d="M348.7,7H142.4c-11.5,0-22.1,6.1-27.9,16.1L11.3,201.8c-5.8,10-5.8,22.2,0,32.2l103.2,178.7
	c5.8,10,16.4,16.1,27.9,16.1h206.3c11.5,0,22.1-6.1,27.9-16.1L479.7,234c5.8-10,5.8-22.2,0-32.2L376.6,23.1
	C370.8,13.1,360.2,7,348.7,7z"/>
<rect x="135.2" y="103.5" class="st1" width="98.5" height="173.6"/>
<rect x="135.2" y="103.5" class="st2" width="98.5" height="173.6"/>
<path class="st1" d="M184.7,44.4c-5.4,0-9.8,4.4-9.8,9.9s4.4,9.9,9.8,9.9s9.9-4.4,9.9-9.9S190.2,44.4,184.7,44.4z"/>
<path class="st2" d="M184.7,44.4c-5.4,0-9.8,4.4-9.8,9.9s4.4,9.9,9.8,9.9s9.9-4.4,9.9-9.9S190.2,44.4,184.7,44.4z"/>
<path class="st3" d="M184.7,83.8l-5.6-11.3c3.5,1.8,7.7,1.8,11.3,0L184.7,83.8z"/>
<rect x="163.6" y="83.8" class="st4" width="41.9" height="1.5"/>
<rect x="163.6" y="83.8" class="st5" width="41.9" height="1.5"/>
<path class="st2" d="M184.5,129.3c-5.4,0-9.9,4.4-9.9,9.9c0,5.4,4.4,9.9,9.9,9.9c5.4,0,9.8-4.4,9.8-9.9
	C194.3,133.7,189.9,129.3,184.5,129.3z"/>
<line class="st6" x1="184.5" y1="160.2" x2="184.5" y2="149"/>
<path class="st3" d="M184.5,168.7l-5.6-11.3c3.5,1.8,7.7,1.8,11.3,0L184.5,168.7z"/>
<line class="st6" x1="184.5" y1="120.8" x2="184.5" y2="85.3"/>
<path class="st3" d="M184.5,129.3l-5.6-11.3c3.5,1.8,7.7,1.8,11.3,0L184.5,129.3z"/>
<rect x="154.9" y="168.7" class="st1" width="59.1" height="49.2"/>
<rect x="154.9" y="168.7" class="st2" width="59.1" height="49.2"/>
<polygon class="st7" points="214,208.1 184.5,217.6 154.9,208.1 "/>
<path class="st1" d="M165.4,257.3c5.4,0,9.8-4.4,9.8-9.8c0-5.4-4.4-9.9-9.8-9.9c-5.4,0-9.9,4.4-9.9,9.9
	C155.5,252.9,159.9,257.3,165.4,257.3z"/>
<path class="st2" d="M165.4,257.3c5.4,0,9.8-4.4,9.8-9.8c0-5.4-4.4-9.9-9.8-9.9c-5.4,0-9.9,4.4-9.9,9.9
	C155.5,252.9,159.9,257.3,165.4,257.3z"/>
<line class="st6" x1="165.4" y1="218.3" x2="165.4" y2="229.5"/>
<path class="st3" d="M165.4,237.6l-5.6-11.3c3.5,1.8,7.7,1.8,11.3,0L165.4,237.6z"/>
<rect x="154.7" y="360.2" class="st5" width="41.9" height="1.5"/>
<line class="st6" x1="164.9" y1="351.7" x2="164.9" y2="257.3"/>
<path class="st3" d="M164.9,360.2l-5.6-11.3c3.5,1.8,7.7,1.8,11.3,0L164.9,360.2z"/>
<path class="st2" d="M174.8,401.1c5.4,0,9.8-4.4,9.8-9.9c0-5.4-4.4-9.8-9.8-9.8c-5.4,0-9.8,4.4-9.8,9.8
	C165,396.6,169.4,401.1,174.8,401.1z"/>
<line class="st6" x1="174.8" y1="361.7" x2="174.8" y2="372.8"/>
<path class="st3" d="M174.8,381.4l-5.6-11.3c3.5,1.8,7.7,1.8,11.3,0L174.8,381.4z"/>
<path class="st2" d="M201.7,257.3c5.4,0,9.8-4.4,9.8-9.8c0-5.4-4.4-9.9-9.8-9.9c-5.4,0-9.8,4.4-9.8,9.9
	C191.9,252.9,196.3,257.3,201.7,257.3z"/>
<path class="st3" d="M201.7,237.6l-5.6-11.3c3.5,1.8,7.7,1.8,11.3,0L201.7,237.6z"/>
<rect x="332.2" y="188.8" class="st4" width="41.9" height="1.5"/>
<rect x="332.2" y="188.8" class="st5" width="41.9" height="1.5"/>
<path class="st6" d="M203.1,54.2h135.3c8.2,0,14.8,6.6,14.8,14.8v119.7"/>
<path class="st3" d="M194.6,54.2l11.3-5.6c-1.8,3.5-1.8,7.7,0,11.3L194.6,54.2z"/>
<path class="st8" d="M143,120.1c0.5-1.1,1.2-2.1,2-3c0.9-0.8,1.9-1.5,3-2c1.2-0.5,2.4-0.7,3.7-0.7s2.5,0.2,3.7,0.7
	c0.7,0.3,1.4,0.7,2,1.1l0.6-0.7l1.8-2.2l0.4,0.1l1.9,7.9l-0.3,0.4l-8.2,0.1l-0.2-0.3l1.8-2.3l0.5-0.6c-0.4-0.3-0.8-0.6-1.3-0.7
	c-0.8-0.3-1.7-0.5-2.5-0.5s-1.7,0.2-2.5,0.5c-0.8,0.3-1.5,0.8-2.1,1.4c-0.6,0.6-1.1,1.3-1.4,2.1c-0.3,0.8-0.5,1.6-0.5,2.5
	c0,0.9,0.2,1.7,0.5,2.5c0.3,0.8,0.8,1.5,1.4,2.1c0.6,0.6,1.3,1,2.1,1.4c0.8,0.3,1.7,0.5,2.5,0.5s1.7-0.2,2.5-0.5
	c0.8-0.3,1.5-0.8,2.1-1.4l2.1,2c-0.9,0.9-1.9,1.5-3,2c-1.2,0.5-2.4,0.7-3.7,0.7s-2.5-0.2-3.7-0.7c-1.1-0.5-2.1-1.1-3-2
	c-0.9-0.9-1.5-1.8-2-3c-0.5-1.1-0.7-2.4-0.7-3.6C142.3,122.5,142.5,121.3,143,120.1z"/>
<path class="st6" d="M364.2,198.8v86.9c0,13.6-11,24.6-24.6,24.6H226.4c-13.6,0-24.6-11-24.6-24.6v-28.4"/>
<path class="st3" d="M364.2,190.3l-5.6,11.3c3.5-1.8,7.7-1.8,11.3,0L364.2,190.3z"/>
<circle class="st2" cx="281.2" cy="139" r="9.9"/>
<circle class="st9" cx="281.2" cy="139" r="4.4"/>
<circle class="st10" cx="281.2" cy="139" r="4.4"/>
<line class="st6" x1="281.2" y1="160.1" x2="281.2" y2="148.9"/>
<path class="st3" d="M281.2,168.6l-5.6-11.3c3.5,1.8,7.7,1.8,11.3,0L281.2,168.6z"/>
<rect x="251.6" y="168.6" class="st1" width="59.1" height="49.2"/>
<rect x="251.6" y="168.6" class="st2" width="59.1" height="49.2"/>
<polygon class="st7" points="310.7,208.1 281.2,217.6 251.6,208.1 "/>
<path class="st6" d="M343.5,198.8l-0.1,77.2c0,12.4-10.1,22.5-22.6,22.5h-1.9c-11.4,0-20.7-9.3-20.7-20.7v-20.7"/>
<path class="st3" d="M343.6,190.3l-5.6,11.3c3.5-1.8,7.7-1.8,11.3,0L343.6,190.3z"/>
<path class="st6" d="M185.4,352.2v-7.4c0-8.2,6.6-14.8,14.8-14.8h47c8.2,0,14.8-6.6,14.8-14.8v-58.1"/>
<path class="st3" d="M185.4,360.2l-5.2-10.5c3.3,1.7,7.2,1.7,10.5,0L185.4,360.2z"/>
<path class="st11" d="M251.6,264.6h59.1c4.1,0,7.4-3.3,7.4-7.4V127.5c0-4.1-3.3-7.4-7.4-7.4h-59.1c-4.1,0-7.4,3.3-7.4,7.4v129.7
	C244.2,261.3,247.5,264.6,251.6,264.6z"/>
<path class="st1" d="M262,257.2c5.4,0,9.8-4.4,9.8-9.9c0-5.4-4.4-9.8-9.8-9.8s-9.8,4.4-9.8,9.8C252.2,252.8,256.6,257.2,262,257.2z"
	/>
<path class="st2" d="M262,257.2c5.4,0,9.8-4.4,9.8-9.9c0-5.4-4.4-9.8-9.8-9.8s-9.8,4.4-9.8,9.8C252.2,252.8,256.6,257.2,262,257.2z"
	/>
<line class="st6" x1="262" y1="218.2" x2="262" y2="229.4"/>
<path class="st3" d="M262,237.5l-5.6-11.3c3.5,1.8,7.7,1.8,11.3,0L262,237.5z"/>
<path class="st1" d="M298.4,257.2c5.4,0,9.8-4.4,9.8-9.9c0-5.4-4.4-9.8-9.8-9.8c-5.4,0-9.8,4.4-9.8,9.8
	C288.6,252.8,293,257.2,298.4,257.2z"/>
<path class="st2" d="M298.4,257.2c5.4,0,9.8-4.4,9.8-9.9c0-5.4-4.4-9.8-9.8-9.8c-5.4,0-9.8,4.4-9.8,9.8
	C288.6,252.8,293,257.2,298.4,257.2z"/>
<line class="st6" x1="298.4" y1="218.2" x2="298.4" y2="229.4"/>
<path class="st3" d="M298.4,237.5l-5.6-11.3c3.5,1.8,7.7,1.8,11.3,0L298.4,237.5z"/>
<line class="st6" x1="184.5" y1="75.4" x2="184.5" y2="64.2"/>
<line class="st6" x1="201.7" y1="230.4" x2="201.7" y2="219.2"/>
</svg>
