<?xml version="1.0" encoding="utf-8"?>
<!-- Generator: Adobe Illustrator 24.1.2, SVG Export Plug-In . SVG Version: 6.00 Build 0)  -->
<svg version="1.1" id="Layer_1" xmlns="http://www.w3.org/2000/svg" xmlns:xlink="http://www.w3.org/1999/xlink" x="0px" y="0px"
	 viewBox="0 0 437 831" style="enable-background:new 0 0 437 831;" xml:space="preserve">
<style type="text/css">
	.st0{fill:none;}
	.st1{}
	.st2{font-size:24.3572px;}
	.st3{fill:none;stroke:#000000;stroke-width:2;stroke-miterlimit:10;}
	.st4{font-size:24.36px;}
	.st5{font-size:40.146px;}
</style>
<g>
	<g>
		<rect x="125.7" y="48" class="st0" width="185" height="54"/>
		<path d="M309.7,49v52h-183V49H309.7 M311.7,47h-187v56h187V47L311.7,47z"/>
	</g>
	<text transform="matrix(1 0 0 1 149.2005 83.4966)" class="st1 st2">HTTP server</text>
</g>
<g>
	<g>
		<rect x="125.7" y="113.7" class="st0" width="185" height="54"/>
		<path d="M309.7,114.7v52h-183v-52H309.7 M311.7,112.7h-187v56h187V112.7L311.7,112.7z"/>
	</g>
	<text transform="matrix(1 0 0 1 165.2025 149.2439)" class="st1 st2">Controller</text>
</g>
<g>
	<g>
		<rect x="125.7" y="179.5" class="st0" width="185" height="54"/>
		<path d="M309.7,180.5v52h-183v-52H309.7 M311.7,178.5h-187v56h187V178.5L311.7,178.5z"/>
	</g>
	<text transform="matrix(1 1.180000e-03 -1.180000e-03 1 163.0444 214.8843)" class="st1 st2">Scheduler</text>
</g>
<g>
	<g>
		<line class="st3" x1="113.9" y1="75" x2="84.1" y2="75"/>
		<g>
			<path d="M126,75c-5.7-2.1-12.7-5.7-17.1-9.5l3.4,9.5l-3.4,9.5C113.3,80.7,120.3,77.1,126,75z"/>
		</g>
		<g>
			<path d="M72,75c5.7-2.1,12.7-5.7,17.1-9.5L85.7,75l3.4,9.5C84.7,80.7,77.7,77.1,72,75z"/>
		</g>
	</g>
</g>
<rect x="99.3" y="1" class="st3" width="237.7" height="381"/>
<text transform="matrix(1 0 0 1 161.965 32.27)" class="st1 st4">Instance 1</text>
<g>
	<g>
		<rect x="125.7" y="245.2" class="st0" width="185" height="54"/>
		<path d="M309.7,246.2v52h-183v-52H309.7 M311.7,244.2h-187v56h187V244.2L311.7,244.2z"/>
	</g>
	<text transform="matrix(1 0 0 1 186.3592 280.7386)" class="st1 st2">Agent</text>
</g>
<g>
	<g>
		<line class="st3" x1="113.9" y1="140.7" x2="84.1" y2="140.7"/>
		<g>
			<path d="M126,140.7c-5.7-2.1-12.7-5.7-17.1-9.5l3.4,9.5l-3.4,9.5C113.3,146.4,120.3,142.9,126,140.7z"/>
		</g>
		<g>
			<path d="M72,140.7c5.7-2.1,12.7-5.7,17.1-9.5l-3.4,9.5l3.4,9.5C84.7,146.4,77.7,142.9,72,140.7z"/>
		</g>
	</g>
</g>
<g>
	<g>
		<line class="st3" x1="113.9" y1="206.5" x2="84.1" y2="206.5"/>
		<g>
			<path d="M126,206.5c-5.7-2.1-12.7-5.7-17.1-9.5l3.4,9.5l-3.4,9.5C113.3,212.2,120.3,208.6,126,206.5z"/>
		</g>
		<g>
			<path d="M72,206.5c5.7-2.1,12.7-5.7,17.1-9.5l-3.4,9.5l3.4,9.5C84.7,212.2,77.7,208.6,72,206.5z"/>
		</g>
	</g>
</g>
<text transform="matrix(0 1 -1 0 213.6289 398.5391)" class="st1 st5">...</text>
<g>
	<path class="st3" d="M39.7,830h-5.4C15.9,830,1,815.1,1,796.7V34.3C1,15.9,15.9,1,34.3,1h5.4C58.1,1,73,15.9,73,34.3v762.4
		C73,815.1,58.1,830,39.7,830z"/>
	<text transform="matrix(0 -1 1 0 43.4974 467.6396)" class="st1 st4">Database</text>
</g>
<g>
	<path class="st3" d="M402.7,830h-5.4c-18.4,0-33.3-14.9-33.3-33.3V34.3C364,15.9,378.9,1,397.3,1h5.4C421.1,1,436,15.9,436,34.3
		v762.4C436,815.1,421.1,830,402.7,830z"/>
	<text transform="matrix(0 1 -1 0 393.5024 361.3321)" class="st1 st4">Event bus</text>
</g>
<g>
	<g>
		<line class="st3" x1="351.9" y1="75" x2="322.1" y2="75"/>
		<g>
			<path d="M364,75c-5.7-2.1-12.7-5.7-17.1-9.5l3.4,9.5l-3.4,9.5C351.3,80.7,358.3,77.1,364,75z"/>
		</g>
		<g>
			<path d="M310,75c5.7-2.1,12.7-5.7,17.1-9.5l-3.4,9.5l3.4,9.5C322.7,80.7,315.7,77.1,310,75z"/>
		</g>
	</g>
</g>
<g>
	<g>
		<line class="st3" x1="351.9" y1="140.7" x2="322.1" y2="140.7"/>
		<g>
			<path d="M364,140.7c-5.7-2.1-12.7-5.7-17.1-9.5l3.4,9.5l-3.4,9.5C351.3,146.4,358.3,142.9,364,140.7z"/>
		</g>
		<g>
			<path d="M310,140.7c5.7-2.1,12.7-5.7,17.1-9.5l-3.4,9.5l3.4,9.5C322.7,146.4,315.7,142.9,310,140.7z"/>
		</g>
	</g>
</g>
<g>
	<g>
		<line class="st3" x1="351.9" y1="206.5" x2="322.1" y2="206.5"/>
		<g>
			<path d="M364,206.5c-5.7-2.1-12.7-5.7-17.1-9.5l3.4,9.5l-3.4,9.5C351.3,212.2,358.3,208.6,364,206.5z"/>
		</g>
		<g>
			<path d="M310,206.5c5.7-2.1,12.7-5.7,17.1-9.5l-3.4,9.5l3.4,9.5C322.7,212.2,315.7,208.6,310,206.5z"/>
		</g>
	</g>
</g>
<g>
	<g>
		<line class="st3" x1="351.9" y1="272.2" x2="322.1" y2="272.2"/>
		<g>
			<path d="M364,272.2c-5.7-2.1-12.7-5.7-17.1-9.5l3.4,9.5l-3.4,9.5C351.3,277.9,358.3,274.3,364,272.2z"/>
		</g>
		<g>
			<path d="M310,272.2c5.7-2.1,12.7-5.7,17.1-9.5l-3.4,9.5l3.4,9.5C322.7,277.9,315.7,274.3,310,272.2z"/>
		</g>
	</g>
</g>
<g>
	<g>
		<rect x="125.7" y="311.2" class="st0" width="185" height="54"/>
		<path d="M309.7,312.2v52h-183v-52H309.7 M311.7,310.2h-187v56h187V310.2L311.7,310.2z"/>
	</g>
	<text transform="matrix(1 0 0 1 134.7262 346.7386)" class="st1 st2">Cloud manager</text>
</g>
<g>
	<g>
		<line class="st3" x1="351.9" y1="338.2" x2="322.1" y2="338.2"/>
		<g>
			<path d="M364,338.2c-5.7-2.1-12.7-5.7-17.1-9.5l3.4,9.5l-3.4,9.5C351.3,343.9,358.3,340.3,364,338.2z"/>
		</g>
		<g>
			<path d="M310,338.2c5.7-2.1,12.7-5.7,17.1-9.5l-3.4,9.5l3.4,9.5C322.7,343.9,315.7,340.3,310,338.2z"/>
		</g>
	</g>
</g>
<g>
	<g>
		<rect x="125.7" y="496" class="st0" width="185" height="54"/>
		<path d="M309.7,497v52h-183v-52H309.7 M311.7,495h-187v56h187V495L311.7,495z"/>
	</g>
	<text transform="matrix(1 0 0 1 149.2005 531.4966)" class="st1 st2">HTTP server</text>
</g>
<g>
	<g>
		<rect x="125.7" y="561.7" class="st0" width="185" height="54"/>
		<path d="M309.7,562.7v52h-183v-52H309.7 M311.7,560.7h-187v56h187V560.7L311.7,560.7z"/>
	</g>
	<text transform="matrix(1 0 0 1 165.2025 597.2439)" class="st1 st2">Controller</text>
</g>
<g>
	<g>
		<rect x="125.7" y="627.5" class="st0" width="185" height="54"/>
		<path d="M309.7,628.5v52h-183v-52H309.7 M311.7,626.5h-187v56h187V626.5L311.7,626.5z"/>
	</g>
	<text transform="matrix(1 1.180000e-03 -1.180000e-03 1 163.0444 662.8843)" class="st1 st2">Scheduler</text>
</g>
<g>
	<g>
		<line class="st3" x1="113.9" y1="523" x2="84.1" y2="523"/>
		<g>
			<path d="M126,523c-5.7-2.1-12.7-5.7-17.1-9.5l3.4,9.5l-3.4,9.5C113.3,528.7,120.3,525.1,126,523z"/>
		</g>
		<g>
			<path d="M72,523c5.7-2.1,12.7-5.7,17.1-9.5l-3.4,9.5l3.4,9.5C84.7,528.7,77.7,525.1,72,523z"/>
		</g>
	</g>
</g>
<rect x="99.3" y="449" class="st3" width="237.7" height="381"/>
<text transform="matrix(1 0 0 1 161.965 480.27)" class="st1 st4">Instance n</text>
<g>
	<g>
		<rect x="125.7" y="693.2" class="st0" width="185" height="54"/>
		<path d="M309.7,694.2v52h-183v-52H309.7 M311.7,692.2h-187v56h187V692.2L311.7,692.2z"/>
	</g>
	<text transform="matrix(1 0 0 1 186.3592 728.7385)" class="st1 st2">Agent</text>
</g>
<g>
	<g>
		<line class="st3" x1="113.9" y1="588.7" x2="84.1" y2="588.7"/>
		<g>
			<path d="M126,588.7c-5.7-2.1-12.7-5.7-17.1-9.5l3.4,9.5l-3.4,9.5C113.3,594.4,120.3,590.9,126,588.7z"/>
		</g>
		<g>
			<path d="M72,588.7c5.7-2.1,12.7-5.7,17.1-9.5l-3.4,9.5l3.4,9.5C84.7,594.4,77.7,590.9,72,588.7z"/>
		</g>
	</g>
</g>
<g>
	<g>
		<line class="st3" x1="113.9" y1="654.5" x2="84.1" y2="654.5"/>
		<g>
			<path d="M126,654.5c-5.7-2.1-12.7-5.7-17.1-9.5l3.4,9.5l-3.4,9.5C113.3,660.2,120.3,656.6,126,654.5z"/>
		</g>
		<g>
			<path d="M72,654.5c5.7-2.1,12.7-5.7,17.1-9.5l-3.4,9.5l3.4,9.5C84.7,660.2,77.7,656.6,72,654.5z"/>
		</g>
	</g>
</g>
<g>
	<g>
		<line class="st3" x1="351.9" y1="523" x2="322.1" y2="523"/>
		<g>
			<path d="M364,523c-5.7-2.1-12.7-5.7-17.1-9.5l3.4,9.5l-3.4,9.5C351.3,528.7,358.3,525.1,364,523z"/>
		</g>
		<g>
			<path d="M310,523c5.7-2.1,12.7-5.7,17.1-9.5l-3.4,9.5l3.4,9.5C322.7,528.7,315.7,525.1,310,523z"/>
		</g>
	</g>
</g>
<g>
	<g>
		<line class="st3" x1="351.9" y1="588.7" x2="322.1" y2="588.7"/>
		<g>
			<path d="M364,588.7c-5.7-2.1-12.7-5.7-17.1-9.5l3.4,9.5l-3.4,9.5C351.3,594.4,358.3,590.9,364,588.7z"/>
		</g>
		<g>
			<path d="M310,588.7c5.7-2.1,12.7-5.7,17.1-9.5l-3.4,9.5l3.4,9.5C322.7,594.4,315.7,590.9,310,588.7z"/>
		</g>
	</g>
</g>
<g>
	<g>
		<line class="st3" x1="351.9" y1="654.5" x2="322.1" y2="654.5"/>
		<g>
			<path d="M364,654.5c-5.7-2.1-12.7-5.7-17.1-9.5l3.4,9.5l-3.4,9.5C351.3,660.2,358.3,656.6,364,654.5z"/>
		</g>
		<g>
			<path d="M310,654.5c5.7-2.1,12.7-5.7,17.1-9.5l-3.4,9.5l3.4,9.5C322.7,660.2,315.7,656.6,310,654.5z"/>
		</g>
	</g>
</g>
<g>
	<g>
		<line class="st3" x1="351.9" y1="720.2" x2="322.1" y2="720.2"/>
		<g>
			<path d="M364,720.2c-5.7-2.1-12.7-5.7-17.1-9.5l3.4,9.5l-3.4,9.5C351.3,725.9,358.3,722.3,364,720.2z"/>
		</g>
		<g>
			<path d="M310,720.2c5.7-2.1,12.7-5.7,17.1-9.5l-3.4,9.5l3.4,9.5C322.7,725.9,315.7,722.3,310,720.2z"/>
		</g>
	</g>
</g>
<g>
	<g>
		<rect x="125.7" y="759.2" class="st0" width="185" height="54"/>
		<path d="M309.7,760.2v52h-183v-52H309.7 M311.7,758.2h-187v56h187V758.2L311.7,758.2z"/>
	</g>
	<text transform="matrix(1 0 0 1 134.7262 794.7385)" class="st1 st2">Cloud manager</text>
</g>
<g>
	<g>
		<line class="st3" x1="351.9" y1="786.2" x2="322.1" y2="786.2"/>
		<g>
			<path d="M364,786.2c-5.7-2.1-12.7-5.7-17.1-9.5l3.4,9.5l-3.4,9.5C351.3,791.9,358.3,788.3,364,786.2z"/>
		</g>
		<g>
			<path d="M310,786.2c5.7-2.1,12.7-5.7,17.1-9.5l-3.4,9.5l3.4,9.5C322.7,791.9,315.7,788.3,310,786.2z"/>
		</g>
	</g>
</g>
</svg>
