<?xml version="1.0" encoding="utf-8"?><!--Generator: Adobe Illustrator 24.1.2, SVG Export Plug-In . SVG Version: 6.00 Build 0)--><svg version="1.1" id="Layer_1" xmlns="http://www.w3.org/2000/svg" xmlns:xlink="http://www.w3.org/1999/xlink" x="0px" y="0px" viewBox="0 0 101.7 278.9" style="enable-background:new 0 0 101.7 278.9;" xml:space="preserve"><rect x="33.5" y="26.7" width="34" height="28.3" style="fill:none;stroke:#ffffff;stroke-width:1.4;stroke-linecap:round;stroke-linejoin:round;stroke-miterlimit:10"/><text transform="matrix(1 0 0 1 47.5002 41.8198)" style="font-size:9.775px;font-weight:400;fill:#ffffff">A</text><rect x="20" y="100.4" width="24.1" height="22.7" style="fill:none;stroke:#ffffff;stroke-width:1.4;stroke-linecap:round;stroke-linejoin:round;stroke-miterlimit:10"/><text transform="matrix(1 0 0 1 28.9001 115.0498)" style="font-size:9.775px;font-weight:400;fill:#ffffff">B</text><rect x="57.6" y="100.4" width="24.1" height="22.7" style="fill:none;stroke:#ffffff;stroke-width:1.4;stroke-linecap:round;stroke-linejoin:round;stroke-miterlimit:10"/><text transform="matrix(1 0 0 1 66.5247 115.0498)" style="font-size:9.775px;font-weight:400;fill:#ffffff">D</text><rect x="33.5" y="225.1" width="34" height="28.1" style="fill:none;stroke:#ffffff;stroke-width:1.4;stroke-linecap:round;stroke-linejoin:round;stroke-miterlimit:10"/><text transform="matrix(1 0 0 1 47.5002 245.8496)" style="font-size:9.775px;font-weight:400;fill:#ffffff">E</text><path d="M50.5,276.3c3.1,0,5.7-2.5,5.7-5.7c0-3.1-2.5-5.7-5.7-5.7s-5.7,2.6-5.7,5.7S47.4,276.3,50.5,276.3z" style="fill:none;stroke:#ffffff;stroke-width:1.4;stroke-linecap:round;stroke-linejoin:round;stroke-miterlimit:10"/><line x1="50.5" y1="253.3" x2="50.5" y2="260" style="fill:none;stroke:#ffffff;stroke-width:0.72;stroke-linecap:round;stroke-linejoin:round;stroke-miterlimit:10"/><path d="M50.5,264.9l-3.2-6.5c2,1,4.4,1,6.5,0L50.5,264.9z" style="fill-rule:evenodd;clip-rule:evenodd;fill:#ffffff"/><circle cx="32" cy="140.1" r="5.7" style="fill:none;stroke:#ffffff;stroke-width:1.4;stroke-linecap:round;stroke-linejoin:round;stroke-miterlimit:10"/><line x1="32" y1="123.1" x2="32" y2="129.5" style="fill:none;stroke:#ffffff;stroke-width:0.72;stroke-linecap:round;stroke-linejoin:round;stroke-miterlimit:10"/><path d="M32,134.4l-3.2-6.5c2,1,4.4,1,6.5,0L32,134.4z" style="fill-rule:evenodd;clip-rule:evenodd;fill:#ffffff"/><path d="M69.6,71.6V71c0-3-2.5-5.5-5.5-5.5h-2.7c-2.9,0-5.3-2.4-5.3-5.3v-5.3" style="fill:none;stroke:#ffffff;stroke-width:0.72;stroke-linecap:round;stroke-linejoin:round;stroke-miterlimit:10"/><path d="M69.6,76.5L66.4,70c2,1,4.4,1,6.5,0L69.6,76.5z" style="fill-rule:evenodd;clip-rule:evenodd;fill:#ffffff"/><path d="M32.1,71.6v-0.5c0-3,2.4-5.4,5.4-5.4h2c3,0,5.4-2.4,5.4-5.4v-5.4" style="fill:none;stroke:#ffffff;stroke-width:0.72;stroke-linecap:round;stroke-linejoin:round;stroke-miterlimit:10"/><path d="M32.1,76.5l-3.3-6.4c2,1,4.4,1,6.5,0L32.1,76.5z" style="fill-rule:evenodd;clip-rule:evenodd;fill:#ffffff"/><path d="M56.2,220v-1.3c0-3.5,2.8-6.3,6.3-6.3c4,0,7.2-3.2,7.2-7.2v-59.4" style="fill:none;stroke:#ffffff;stroke-width:0.72;stroke-linecap:round;stroke-linejoin:round;stroke-miterlimit:10"/><path d="M56.2,224.9l-3.2-6.5c2,1,4.4,1,6.5,0L56.2,224.9z" style="fill-rule:evenodd;clip-rule:evenodd;fill:#ffffff"/><path d="M44.8,220v-1.5c0-3.5-2.9-6.4-6.4-6.4h-1.6c-2.7,0-4.8-2.2-4.8-4.8v-4.8" style="fill:none;stroke:#ffffff;stroke-width:0.72;stroke-linecap:round;stroke-linejoin:round;stroke-miterlimit:10"/><path d="M44.8,224.9l-3.2-6.5c2,1,4.4,1,6.5,0L44.8,224.9z" style="fill-rule:evenodd;clip-rule:evenodd;fill:#ffffff"/><path d="M50.6,4c-3.1,0-5.7,2.5-5.7,5.7c0,3.1,2.5,5.7,5.7,5.7c3.1,0,5.7-2.5,5.7-5.7C56.3,6.6,53.8,4,50.6,4z" style="fill:none;stroke:#ffffff;stroke-width:1.4;stroke-linecap:round;stroke-linejoin:round;stroke-miterlimit:10"/><path d="M50.6,7.1c-1.4,0-2.6,1.1-2.6,2.6c0,1.4,1.1,2.6,2.6,2.6c1.4,0,2.6-1.2,2.6-2.6C53.2,8.3,52,7.1,50.6,7.1z" style="fill-rule:evenodd;clip-rule:evenodd;fill:#ffffff"/><path d="M50.6,7.1c-1.4,0-2.6,1.1-2.6,2.6c0,1.4,1.1,2.6,2.6,2.6c1.4,0,2.6-1.2,2.6-2.6C53.2,8.3,52,7.1,50.6,7.1z" style="fill:none;stroke:#ffffff;stroke-width:0.72;stroke-linecap:round;stroke-linejoin:round;stroke-miterlimit:10"/><line x1="50.6" y1="21.8" x2="50.6" y2="15.4" style="fill:none;stroke:#ffffff;stroke-width:0.72;stroke-linecap:round;stroke-linejoin:round;stroke-miterlimit:10"/><path d="M50.6,26.7l-3.2-6.5c2,1,4.4,1,6.5,0L50.6,26.7z" style="fill-rule:evenodd;clip-rule:evenodd;fill:#ffffff"/><circle cx="69.6" cy="140.1" r="5.7" style="fill:none;stroke:#ffffff;stroke-width:1.4;stroke-linecap:round;stroke-linejoin:round;stroke-miterlimit:10"/><line x1="69.6" y1="123.1" x2="69.6" y2="129.5" style="fill:none;stroke:#ffffff;stroke-width:0.72;stroke-linecap:round;stroke-linejoin:round;stroke-miterlimit:10"/><path d="M69.6,134.4l-3.2-6.5c2,1,4.4,1,6.5,0L69.6,134.4z" style="fill-rule:evenodd;clip-rule:evenodd;fill:#ffffff"/><circle cx="32.1" cy="82.2" r="5.7" style="fill:none;stroke:#ffffff;stroke-width:1.4;stroke-linecap:round;stroke-linejoin:round;stroke-miterlimit:10"/><line x1="32.1" y1="95.5" x2="32.1" y2="87.9" style="fill:none;stroke:#ffffff;stroke-width:0.72;stroke-linecap:round;stroke-linejoin:round;stroke-miterlimit:10"/><path d="M32.1,100.4l-3.3-6.5c2,1,4.4,1,6.5,0L32.1,100.4z" style="fill-rule:evenodd;clip-rule:evenodd;fill:#ffffff"/><circle cx="69.6" cy="82.2" r="5.7" style="fill:none;stroke:#ffffff;stroke-width:1.4;stroke-linecap:round;stroke-linejoin:round;stroke-miterlimit:10"/><line x1="69.6" y1="95.5" x2="69.6" y2="87.9" style="fill:none;stroke:#ffffff;stroke-width:0.72;stroke-linecap:round;stroke-linejoin:round;stroke-miterlimit:10"/><path d="M69.6,100.4l-3.2-6.5c2,1,4.4,1,6.5,0L69.6,100.4z" style="fill-rule:evenodd;clip-rule:evenodd;fill:#ffffff"/><polygon points="67.5,224.9 50.5,230.3 33.5,224.9 " style="fill:none;stroke:#ffffff;stroke-width:0.72;stroke-linecap:round;stroke-linejoin:round;stroke-miterlimit:10"/><line x1="33.5" y1="230.8" x2="67.5" y2="230.8" style="fill:none;stroke:#ffffff;stroke-width:0.72;stroke-linecap:round;stroke-linejoin:round;stroke-miterlimit:10"/><polygon points="33.5,54.8 50.5,49.4 67.5,54.8 " style="fill:none;stroke:#ffffff;stroke-width:0.72;stroke-linecap:round;stroke-linejoin:round;stroke-miterlimit:10"/><line x1="67.5" y1="49" x2="33.5" y2="49" style="fill:none;stroke:#ffffff;stroke-width:0.72;stroke-linecap:round;stroke-linejoin:round;stroke-miterlimit:10"/><rect x="20" y="157.1" width="24.1" height="22.7" style="fill:none;stroke:#ffffff;stroke-width:1.4;stroke-linecap:round;stroke-linejoin:round;stroke-miterlimit:10"/><text transform="matrix(1 0 0 1 28.6252 171.9004)" style="font-size:9.775px;font-weight:400;fill:#ffffff">C</text><line x1="32" y1="152.2" x2="32" y2="145.8" style="fill:none;stroke:#ffffff;stroke-width:0.72;stroke-linecap:round;stroke-linejoin:round;stroke-miterlimit:10"/><path d="M32,157.1l-3.2-6.5c2,1,4.4,1,6.5,0L32,157.1z" style="fill-rule:evenodd;clip-rule:evenodd;fill:#ffffff"/><path d="M32,191.1l-3.2-6.5c2,1,4.4,1,6.5,0L32,191.1z" style="fill-rule:evenodd;clip-rule:evenodd;fill:#ffffff"/><line x1="32" y1="179.8" x2="32" y2="186.2" style="fill:none;stroke:#ffffff;stroke-width:0.72;stroke-linecap:round;stroke-linejoin:round;stroke-miterlimit:10"/><path d="M32,202.5c3.1,0,5.7-2.5,5.7-5.7s-2.5-5.7-5.7-5.7c-3.1,0-5.7,2.5-5.7,5.7S28.9,202.5,32,202.5z" style="fill:none;stroke:#ffffff;stroke-width:1.4;stroke-linecap:round;stroke-linejoin:round;stroke-miterlimit:10"/><path class="docs-image-generate-process-chains-box1" d="M11,90.8h79.7c5.5,0,10-3.5,10-7.8V8.8c0-4.3-4.5-7.8-10-7.8H11
	C5.5,1,1,4.5,1,8.8v74.1C1,87.3,5.5,90.8,11,90.8z" style="fill:none;stroke:#D31216;stroke-width:2;stroke-linecap:round;stroke-linejoin:round;stroke-miterlimit:10;stroke-dasharray:7.9123,5.6516"/><path class="docs-image-generate-process-chains-box2" d="M18.1,205.7h27.2c1.9,0,3.4-1.5,3.4-3.4V70.8
	c0-1.9-1.5-3.4-3.4-3.4H18.1c-1.9,0-3.4,1.5-3.4,3.4v131.6C14.7,204.2,16.2,205.7,18.1,205.7z" style="fill:none;stroke:#4C5AA4;stroke-width:2;stroke-linecap:round;stroke-linejoin:round;stroke-miterlimit:10;stroke-dasharray:7,5"/><path class="docs-image-generate-process-chains-box3" d="M55.3,149.6h27.2c1.9,0,3.4-1.5,3.4-3.4V70.8
	c0-1.9-1.5-3.4-3.4-3.4H55.3c-1.9,0-3.4,1.5-3.4,3.4v75.4C51.9,148.1,53.4,149.6,55.3,149.6z" style="fill:none;stroke:#4C5AA4;stroke-width:2;stroke-linecap:round;stroke-linejoin:round;stroke-miterlimit:10;stroke-dasharray:7,5"/><path class="docs-image-generate-process-chains-box4" d="M91.2,125.4H59.9c-5.2,0-9.4,4.2-9.4,9.4v38.7
	c0,5.2-4.2,9.4-9.4,9.4H10.4c-5.2,0-9.4,4.2-9.4,9.4v76.2c0,5.2,4.2,9.4,9.4,9.4h80.8c5.2,0,9.4-4.2,9.4-9.4V134.8
	C100.6,129.6,96.4,125.4,91.2,125.4z" style="fill:none;stroke:#1CA538;stroke-width:2;stroke-linecap:round;stroke-linejoin:round;stroke-miterlimit:10;stroke-dasharray:7.9123,5.6516"/></svg>